<svg xmlns="http://www.w3.org/2000/svg" width="300" height="300" viewBox="0 0 300 300"><path fill="#3598D4" d="M0 0h300v300H0z"/><path d="M122.857 179.205c-4.18-9.14-12.217-17.133-24.634-18.3-8.77-.824-16.646 1-24.633 2.11-2.732-5.423-6.782-11.2-14.312-11.494-3.396-.132-6.77.896-10.557 1.173 5.23-8.372-2.53-16.477-9.853-17.595-.944.15-2.495-.305-3.05.234-.34-.77 2.044-2.777 3.05-3.753 12.022-9.72 24.56-18.923 45.75-19.474-.328-3.348-3.74-3.613-6.1-4.927.534-1.315 1.664-.6 3.284-.705 3.302 2.554 5.893 5.594 10.09 7.273 3.992 1.598 8.27 3.14 13.137 3.988 5.462 2.35 13.92 3.14 20.41 5.63 3.44 1.32 6.952 4.507 9.385.235-.646-2.37-2.297-4.646-3.52-7.037-1.125-2.202-2.85-5.13-2.814-7.507.026-1.826 1.184-4.41 1.877-6.335.703-1.952 1.827-3.79 2.58-5.63 5.503 5.134 12.422 8.85 16.19 15.72 1.868-1.885 2.942-4.564 4.456-6.804 3.818-3.222 8.004-6.074 11.263-9.853 2.31 1.788 2.944 5.634 3.988 8.445.422 1.13 1.396 2.3 1.41 3.52.052 4.62-5.608 10.157-6.335 14.545.432 1.68 1.636 2.587 3.05 3.284 8.382-4.95 20.735-7.323 31.437-10.323 3.64-1.02 7.676-1.842 10.558-3.284 4.207-2.106 6.26-9.114 11.495-5.865-2.832.686-5.787 1.25-6.1 4.458 21.272.556 37.32 12.19 47.86 23.46h-4.457c-7.297 1.134-12.734 10.422-8.446 17.362-4.083-.173-7.688-1.654-11.262-1.173-6.617.89-10.017 6.457-12.433 11.495-6.172-.885-12.312-1.596-18.3-2.11-2.11-.182-3.964-.66-6.102-.47-13.043 1.163-20.195 9.876-25.806 18.534 2.65 3.644 6.545 6.906 9.618 10.56.26.306 1.45.662.704 1.172-1.816-1.586-5.31-.17-5.865.703-1.272-3.105-1.91-6.848-4.224-8.914-5.744.088-9.818 5.525-15.484 5.63-.92.02-1.717-.562-2.58-.468-4.585.502-6.344 5.17-8.212 8.915-3.438-3.69-4.335-8.118-10.323-8.21-.853-.015-1.827.365-2.815.232-4.646-.625-7.76-5.73-13.138-5.162-2.516 1.785-2.98 5.624-4.458 8.446-.417 1.145-.932-1.32-2.11-.938-1.346.297-2.912.373-3.99.938 2.57-3.844 7.39-7.466 10.323-11.73z"/></svg>