<svg xmlns="http://www.w3.org/2000/svg" width="300" height="300"><path fill="#3598D4" d="M0 0h300v300H0z"/><path d="M122.857 179.205c-4.179-9.14-12.217-17.133-24.634-18.3-8.77-.824-16.646 1-24.633 2.111-2.732-5.424-6.782-11.202-14.312-11.495-3.396-.133-6.769.895-10.557 1.172 5.228-8.372-2.532-16.477-9.854-17.595-.944.151-2.495-.305-3.05.234-.34-.769 2.044-2.777 3.05-3.753 12.022-9.719 24.56-18.922 45.749-19.473-.327-3.348-3.738-3.613-6.1-4.927.535-1.314 1.665-.598 3.285-.704 3.301 2.554 5.892 5.594 10.088 7.273 3.993 1.598 8.271 3.141 13.138 3.988 5.462 2.35 13.921 3.14 20.411 5.631 3.438 1.32 6.951 4.506 9.384.234-.646-2.371-2.297-4.647-3.519-7.038-1.126-2.202-2.85-5.13-2.815-7.507.026-1.826 1.184-4.411 1.877-6.335.703-1.953 1.827-3.792 2.581-5.63 5.502 5.133 12.421 8.849 16.188 15.719 1.869-1.885 2.943-4.564 4.457-6.804 3.817-3.222 8.003-6.074 11.262-9.853 2.31 1.788 2.944 5.634 3.988 8.445.421 1.131 1.395 2.3 1.408 3.519.053 4.621-5.607 10.158-6.334 14.546.432 1.68 1.636 2.587 3.049 3.284 8.383-4.949 20.736-7.323 31.438-10.323 3.639-1.019 7.676-1.842 10.558-3.284 4.207-2.106 6.26-9.114 11.495-5.865-2.832.686-5.787 1.25-6.1 4.458 21.272.556 37.32 12.189 47.86 23.461h-4.457c-7.297 1.133-12.734 10.421-8.446 17.361-4.083-.173-7.688-1.654-11.262-1.173-6.617.891-10.017 6.457-12.433 11.495a325.489 325.489 0 00-18.301-2.11c-2.109-.182-3.963-.66-6.101-.47-13.043 1.163-20.195 9.876-25.806 18.534 2.652 3.643 6.546 6.905 9.619 10.558.259.307 1.449.663.704 1.173-1.816-1.586-5.309-.171-5.865.703-1.272-3.105-1.911-6.848-4.224-8.914-5.744.087-9.818 5.524-15.484 5.63-.919.019-1.716-.563-2.58-.469-4.584.502-6.343 5.171-8.211 8.915-3.438-3.689-4.335-8.118-10.323-8.211-.853-.014-1.827.366-2.815.233-4.646-.624-7.76-5.729-13.138-5.161-2.516 1.785-2.979 5.624-4.458 8.446-.417 1.145-.932-1.32-2.111-.938-1.345.297-2.911.373-3.988.938 2.568-3.844 7.39-7.466 10.322-11.729z"/></svg>