<svg xmlns="http://www.w3.org/2000/svg" width="300" height="300"><path fill="#8B4D29" d="M0-.603h300v300.602H0z"/><path fill-rule="evenodd" clip-rule="evenodd" d="M109.511 88.5h17.661c30.557 4.764 50.716 19.925 67.525 38.437-12.045 8.892-6.624 29.45 6.232 33.243 8.685-.902 7.332-7.639 15.583-7.271 13.58.604 11.954 14.609 5.194 22.854-8.66 10.562-30.598 26.781-36.359 32.204-6.131-3.05-13.189-4.707-13.505-11.428-.323-6.871 8.034-7.725 8.311-13.505.34-7.129-12.268-16.024-19.738-15.583-8.678.514-20.531 16.376-29.087 24.933-24.183 24.183-62.096 59.488-81.03 79.991 1.739 1.723.827 6.099 1.039 9.35C9.85 319.884-27.771 361.908-69.17 400.153h-5.194c-6.562-6.251-13.81-11.815-18.699-19.738v-5.194c39.319-40.324 79.259-80.03 119.467-119.467 14.967.901 24.415-15.065 35.321-25.971l49.864-49.864c8.02-8.02 19.772-17.407 23.894-25.972 18.937-39.354-20.723-52.368-57.136-50.903 6.052-9.183 18.819-11.652 31.164-14.544z"/><path d="M155.782 123.627l25.192 23.18-37.592 40.856-25.192-23.18z"/></svg>