<svg xmlns="http://www.w3.org/2000/svg" width="300" height="300" viewBox="0 0 300 300"><path fill="#8B4D29" d="M0-.603h300V300H0z"/><path fill-rule="evenodd" clip-rule="evenodd" d="M109.51 88.5h17.662c30.557 4.764 50.716 19.925 67.525 38.437-12.045 8.892-6.624 29.45 6.232 33.243 8.684-.902 7.33-7.64 15.582-7.27 13.58.603 11.954 14.608 5.194 22.853-8.66 10.562-30.598 26.78-36.36 32.204-6.13-3.05-13.188-4.707-13.504-11.428-.323-6.872 8.034-7.726 8.31-13.506.34-7.13-12.267-16.024-19.737-15.583-8.678.515-20.53 16.377-29.087 24.934-24.183 24.183-62.096 59.488-81.03 79.99 1.74 1.724.827 6.1 1.04 9.35-41.488 38.16-79.11 80.184-120.508 118.43h-5.194c-6.562-6.252-13.81-11.816-18.7-19.74v-5.193c39.32-40.323 79.26-80.03 119.468-119.466 14.967.9 24.415-15.065 35.32-25.97l49.865-49.865c8.02-8.02 19.77-17.408 23.893-25.973 18.937-39.354-20.723-52.368-57.136-50.903C84.4 93.86 97.167 91.392 109.51 88.5z"/><path d="M155.782 123.627l25.192 23.18-37.592 40.856-25.192-23.18z"/></svg>