<svg xmlns="http://www.w3.org/2000/svg" width="300" height="300"><path fill="#333" d="M0 0h300v300H0z"/><path fill="#80BD01" d="M182.856 137.201c0-1.263-.769-2.523-1.758-3.018l-28.661-16.594c-.495-.248-1.015-.496-1.51-.496h-.247c-.496 0-1.014.248-1.509.496l-28.959 16.594c-1.014.494-1.756 1.755-1.756 3.018v44.515c0 .494.248 1.262.767 1.508.52.248 1.262.248 1.755 0l17.114-9.818c1.015-.765 1.757-1.754 1.757-3.016v-20.873c0-1.262.767-2.276 1.756-3.017l7.295-4.279c.495-.248 1.261-.495 1.756-.495s1.262.248 1.757.495l7.294 4.279c1.016.495 1.757 1.755 1.757 3.017v20.873c0 1.262.767 2.275 1.757 3.016l17.114 9.818c.494.248 1.261.248 1.754 0 .495-.246.769-.767.769-1.508v-44.515z"/></svg>