<svg xmlns="http://www.w3.org/2000/svg" width="300" height="300" viewBox="0 0 300 300"><path fill="#333" d="M0 0h300v300H0z"/><path fill="#80BD01" d="M182.856 137.2c0-1.262-.77-2.522-1.758-3.017l-28.66-16.594c-.496-.25-1.016-.497-1.51-.497h-.248c-.496 0-1.014.248-1.51.496l-28.958 16.593c-1.014.494-1.756 1.755-1.756 3.018v44.516c0 .494.248 1.262.767 1.508.52.248 1.262.248 1.755 0l17.114-9.818c1.015-.765 1.757-1.754 1.757-3.016v-20.873c0-1.262.766-2.276 1.755-3.017l7.295-4.28c.495-.247 1.26-.494 1.756-.494s1.262.248 1.757.495l7.294 4.28c1.016.495 1.757 1.755 1.757 3.017v20.873c0 1.262.767 2.275 1.757 3.016l17.115 9.818c.494.248 1.26.248 1.754 0 .494-.246.768-.767.768-1.508V137.2z"/></svg>