<svg xmlns="http://www.w3.org/2000/svg" width="300" height="300" viewBox="0 0 300 300"><path fill="#249761" d="M0 0h300v300H0z"/><g fill-rule="evenodd" clip-rule="evenodd"><path fill="#371F0F" d="M137.925 77.97c.983-.16 2.63-.16 3.613 0h-3.613zM135.643 78.063c.194-.218.79-.034 1.142-.095-.195.22-.79.035-1.142.095zM142.49 77.97c.32.06.882-.124 1.045.094-.32-.06-.883.122-1.046-.095zM118.527 85.766c.32-.158 1.297-.158 1.617 0h-1.617zM230.256 98.317c.352-.158 1.36-.158 1.712 0h-1.712z"/><path fill="#A05A2C" d="M217.99 151.28c.157 1.175.157 3.013 0 4.185v-4.184zM57.385 175.53h.095v1.046h-.095v-1.047z"/><path fill="#371F0F" d="M61.474 179.238h.095v1.14c-.22-.192-.035-.788-.096-1.14z"/><path fill="#A05A2C" d="M57.385 179.81h.095v1.33h-.095v-1.33z"/><path fill="#371F0F" d="M127.56 220.03h2.758v.095c-.888-.063-2.028.127-2.757-.094z"/><path fill="#502D16" d="M130.318 220.125v-.094h.95v.095h-.95z"/><path fill="#371F0F" d="M131.27 220.125v-.094h2.092c-.51.222-1.426.032-2.093.095z"/><path fill="#A05A2C" d="M126.705 224.12h1.046v.095c-.32-.06-.883.123-1.045-.096z"/><path fill="#371F0F" d="M88.29 104.023c.403-.483.847-.927 1.33-1.332-.404.485-.848.93-1.33 1.333zM193.646 96.606c.42.34.8.72 1.142 1.14-.42-.34-.8-.72-1.142-1.14z"/><path fill="#A05A2C" d="M65.087 203.01c.452.373.864.785 1.236 1.236-.45-.373-.863-.785-1.236-1.236z"/><path fill="#371F0F" d="M133.74 92.993c.484.404.928.848 1.332 1.33-.483-.403-.926-.847-1.33-1.33zM135.643 94.99c.357.276.674.593.95.95-.356-.277-.673-.594-.95-.95zM179.954 164.404c4.255 1.758 6.203-1.488 8.272-3.898 3.896-4.538 7.46-9.78 9.984-15.405 3.862-8.603 5.54-17.836 5.325-28.716 7.47 11.867 12.613 30.003 9.224 49.256-2.537 14.404-9.477 26.115-17.782 35.373-2.357 2.625-4.493 5.557-9.51 4.373 1.38-2.674 2.608-5.29 2.854-8.938.398-5.943-1.08-11.797-2.758-17.21-1.67-5.388-3.442-10.4-5.42-14.55-.043-.09-.178-.155-.19-.284zM189.653 98.413c.96.88 1.878 1.8 2.758 2.757-.958-.88-1.878-1.798-2.757-2.757z"/><path fill="#502D16" d="M143.535 78.063c20.607 1.55 34.472 9.84 46.118 20.35.88.958 1.8 1.877 2.758 2.756 4.283 4.497 8.02 9.54 11.126 15.213.216 10.88-1.463 20.112-5.325 28.717-2.524 5.625-6.088 10.867-9.983 15.405-2.07 2.41-4.018 5.656-8.272 3.898-11.202-26.072-25.87-48.68-43.36-68.464-.277-.358-.594-.675-.95-.952-.132-.28-.44-.385-.57-.666-.405-.483-.85-.927-1.332-1.33-3.67-3.272-7.226-6.658-13.598-7.228-.32-.158-1.296-.158-1.617 0-.903.016-1.633.205-2.472.286 1.153-4.816 5.647-5.74 10.935-6.847 2.802-.586 5.832-1.05 8.654-1.14.352-.062.947.123 1.142-.096h5.704c.162.22.725.036 1.045.096z"/><path fill="#6E3E1E" d="M91.142 106.97c.72-.8 1.482-1.56 2.282-2.28-.72.8-1.482 1.56-2.282 2.28z"/><path fill="#371F0F" d="M68.13 200.252c.58.5 1.117 1.04 1.616 1.617-.578-.5-1.117-1.04-1.616-1.618z"/><path fill="#A05A2C" d="M93.424 104.688c4.736-4.586 10.33-8.817 16.926-11.886 2.206-1.026 4.465-2.228 6.75-2.757 5.044-1.17 9.317 1.94 12.268 4.47 3.18 2.725 5.663 5.933 8.178 8.937 5.295 6.33 10.36 12.666 14.93 19.303 9.616 13.968 17.476 28.76 24.15 44.31-7.028 17.005-21.292 27.77-39.27 34.612-16.687 6.354-44.413 9.777-63.994 3.14-1.354-.835-2.488-1.888-3.614-2.948-.5-.58-1.038-1.118-1.616-1.618-1.833-2.354-4.163-4.754-5.04-8.178-.873-3.408-1.402-7.318-1.52-11.695v-1.142-3.043c.797-15.45 4.963-27.952 10.173-39.272 5.173-11.24 11.202-21.536 19.398-29.953.8-.72 1.56-1.48 2.28-2.282z"/><path fill="#6E3E1E" d="M73.36 204.816c19.58 6.64 47.308 3.215 63.994-3.14 17.98-6.843 32.242-17.606 39.27-34.61 2.798 6.412 5.47 13.244 6.942 20.92.796 4.145.99 8.877-.285 12.36-1.252 3.43-3.657 5.257-6.56 7.323-10.81 7.69-25.47 11.673-43.36 12.36h-5.801c-10.69-.182-20.832-1.994-29.86-4.564-9.155-2.607-17.352-5.662-24.056-10.365-.09-.063-.26-.133-.284-.284z"/><path fill="#371F0F" d="M207.625 115.148c.857-.124 2.422-1.208 3.423-1.71 3.2-1.61 6.764-3.636 10.745-4.565 5.216-1.217 11.124-.085 16.26.57 1.017.13 2.873.727 2.378-.665.187 2.88-.253 5.96-1.14 8.083-4.325-1.514-8.23-3.754-13.6-4.088-7.216-.448-11.546 3.43-16.353 5.61-.477-1.173-1.125-2.173-1.712-3.234z"/><path fill="#502D16" d="M231.968 98.317c6.51-.202 8.065 4.55 8.463 10.46.496 1.39-1.36.795-2.377.666-5.136-.656-11.044-1.788-16.26-.57-3.98.928-7.546 2.955-10.745 4.563-1 .503-2.565 1.587-3.423 1.71-1.188-1.98-2.346-3.993-3.613-5.895 6.48-5.91 14.76-10.025 26.244-10.934h1.712z"/><path fill="#371F0F" d="M137.164 73.785h2.948v.095h-2.948v-.095z"/><path fill="#502D16" d="M140.112 73.785h2.187v.095h-2.188v-.095z"/><path fill="#6E3E1E" d="M135.072 73.975c.194-.218.79-.035 1.142-.095-.194.218-.79.034-1.142.095z"/><path fill="#A05A2C" d="M143.06 73.88c.383.06 1.012-.124 1.236.095-.383-.06-1.01.124-1.236-.095z"/><path d="M144.296 73.975c22.015 1.98 37.062 10.924 49.35 22.63.342.42.723.8 1.143 1.142 2.413 2.5 4.723 5.102 6.75 7.987 7.222-5.933 15.925-10.384 27.956-11.506h3.043c8.372.217 11.207 5.97 11.98 13.788.06.383-.124 1.01.095 1.236v.476c-.22.414-.033 1.235-.095 1.807-.156 1.932-.418 3.744-.95 5.515-.478 1.583-1.125 3.346-2.76 3.9-1.16.392-2.64-.178-3.897-.667-3.47-1.347-7.046-3.137-11.315-3.423-3.567-.24-5.68.792-7.987 1.9-2.154 1.037-4.21 1.972-6.37 3.424 3.346 7.812 5.97 16.344 6.656 26.815.062.413-.124 1.074.095 1.33v6.085c-.218.258-.032.92-.094 1.333-1.427 18.56-8.403 32.04-17.496 43.266-2.966 3.66-5.963 8.04-11.6 8.652-.353.06-.948-.123-1.143.096-.94-.086-1.825-.164-2.853-.38-.85-.18-1.814-.784-2.377-.763-.588.024-1.543 1.09-2.282 1.616-11.26 8.012-25.642 12.723-43.836 13.787-.384.062-1.012-.123-1.237.096h-1.046c-.888.06-2.027-.126-2.758.095h-1.332c-.54-.22-1.49-.033-2.187-.096H125.566c-.195-.22-.79-.034-1.142-.097-12.05-.707-23.09-2.93-32.9-6.084-9.763-3.142-18.594-7.26-25.198-13.694-.373-.45-.785-.863-1.236-1.236-2.027-2.652-4.546-5.393-5.706-9.033-1.206-3.783-1.468-8.076-1.902-12.838v-1.33c-.062-.446.124-1.14-.095-1.427v-.762c.218-.16.035-.726.095-1.044v-1.047c.95-15.827 5.36-28.783 10.65-40.51 5.278-11.702 11.777-22.22 20.16-30.998.482-.404.926-.848 1.33-1.332 6.08-6.22 13.447-11.15 21.87-15.024 1.062-5.45 3.288-9.128 7.893-10.65 4.6-1.52 10.132-2.658 15.69-3.042.35-.06.946.123 1.14-.095H143.064c.223.22.85.034 1.234.095zm-6.37 3.994h-1.142c-.352.06-.947-.125-1.142.094-2.822.09-5.852.555-8.653 1.14-5.29 1.108-9.783 2.032-10.936 6.848.84-.08 1.57-.27 2.472-.286h1.617c6.372.57 9.926 3.957 13.598 7.227.405.483.85.927 1.332 1.33.132.282.44.386.57.667.277.357.595.674.95.95 17.49 19.784 32.16 42.393 43.36 68.465.013.13.147.193.19.285 1.98 4.148 3.75 9.162 5.42 14.55 1.68 5.413 3.157 11.267 2.76 17.21-.246 3.646-1.474 6.264-2.854 8.938 5.016 1.184 7.15-1.748 9.51-4.373 8.305-9.258 15.244-20.97 17.78-35.373 3.39-19.253-1.755-37.39-9.224-49.256-3.105-5.675-6.843-10.716-11.125-15.214-.88-.958-1.8-1.878-2.76-2.757-11.645-10.51-25.51-18.8-46.117-20.35-.163-.216-.726-.034-1.046-.094h-.95c-.98-.16-2.63-.16-3.612 0zm38.7 89.096c-6.676-15.55-14.535-30.343-24.152-44.31-4.57-6.638-9.634-12.976-14.93-19.304-2.514-3.004-4.997-6.212-8.177-8.938-2.95-2.53-7.223-5.638-12.267-4.47-2.286.53-4.545 1.732-6.75 2.758-6.597 3.07-12.19 7.3-16.927 11.886-.8.72-1.56 1.48-2.282 2.282-8.195 8.417-14.224 18.712-19.397 29.953-5.21 11.32-9.376 23.82-10.174 39.272-.223.824-.033 2.06-.096 3.043.06.352-.123.947.095 1.14.118 4.378.647 8.288 1.52 11.696.877 3.424 3.207 5.824 5.04 8.178.5.578 1.038 1.117 1.616 1.617 1.126 1.06 2.26 2.112 3.614 2.946.022.15.193.22.285.285 6.705 4.704 14.9 7.76 24.057 10.366 9.027 2.57 19.17 4.383 29.858 4.564.73.22 1.87.03 2.757.094h.95c.668-.062 1.585.127 2.094-.094 17.89-.688 32.552-4.67 43.36-12.36 2.903-2.067 5.31-3.896 6.562-7.323 1.274-3.484 1.08-8.217.285-12.36-1.473-7.676-4.144-14.508-6.94-20.92zm53.63-68.75c-11.484.91-19.763 5.025-26.244 10.936 1.268 1.902 2.426 3.914 3.613 5.896.587 1.062 1.235 2.062 1.712 3.233 4.808-2.18 9.138-6.058 16.354-5.61 5.37.334 9.274 2.575 13.6 4.09.887-2.124 1.326-5.203 1.14-8.083-.396-5.91-1.953-10.662-8.462-10.46-.352-.158-1.36-.158-1.712 0z"/><path fill="#502D16" d="M229.495 94.23c.793-.16 2.25-.16 3.043 0h-3.043z"/><path fill="#A05A2C" d="M244.614 109.252c-.22-.225-.034-.853-.095-1.236h.094v1.236z"/><path fill="#502D16" d="M244.614 109.728v1.807h-.095c.06-.572-.126-1.393.094-1.807z"/><path fill="#A05A2C" d="M217.895 149c.22.256.033.917.095 1.33-.22-.256-.034-.916-.095-1.33zM217.99 156.416c-.063.414.123 1.075-.096 1.332.062-.414-.123-1.075.095-1.332z"/><path fill="#502D16" d="M57.48 176.576c-.06.318.123.883-.095 1.045v-1.044h.095zM61.57 176.195v3.043h-.096c.063-.984-.126-2.218.095-3.043zM57.385 178.383c.22.287.034.98.095 1.426h-.095v-1.427zM187.656 209.762c.194-.22.79-.035 1.142-.096-.194.22-.79.035-1.142.096z"/><path fill="#A05A2C" d="M124.422 224.023c.352.062.947-.123 1.14.096-.35-.06-.946.122-1.14-.097z"/><path fill="#6E3E1E" d="M135.072 224.12c.226-.22.854-.034 1.236-.097-.224.22-.853.036-1.236.096z"/><path fill="#371F0F" d="M127.75 224.12c.698.06 1.647-.126 2.187.095h-2.187v-.096z"/><path fill="#6E3E1E" d="M131.27 224.215c.73-.22 1.87-.033 2.757-.096-.73.22-1.87.032-2.758.095z"/></g></svg>