<svg xmlns="http://www.w3.org/2000/svg" width="300" height="300"><path fill="#249761" d="M0 0h300v300H0z"/><g fill-rule="evenodd" clip-rule="evenodd"><path fill="#371F0F" d="M137.925 77.969c.983-.159 2.631-.159 3.613 0h-3.613zM135.643 78.063c.194-.218.79-.034 1.142-.095-.195.219-.791.035-1.142.095zM142.489 77.969c.32.06.883-.123 1.046.095-.32-.061-.883.122-1.046-.095zM118.527 85.766c.32-.158 1.297-.158 1.617 0h-1.617zM230.256 98.317c.352-.158 1.36-.158 1.712 0h-1.712z"/><path fill="#A05A2C" d="M217.989 151.281c.158 1.174.158 3.012 0 4.184v-4.184zM57.385 175.529h.095v1.047h-.095v-1.047z"/><path fill="#371F0F" d="M61.474 179.238h.095v1.141c-.218-.193-.034-.789-.095-1.141z"/><path fill="#A05A2C" d="M57.385 179.809h.095v1.33h-.095v-1.33z"/><path fill="#371F0F" d="M127.561 220.031h2.757v.094c-.888-.063-2.028.127-2.757-.094z"/><path fill="#502D16" d="M130.318 220.125v-.094h.951v.094h-.951z"/><path fill="#371F0F" d="M131.269 220.125v-.094h2.093c-.509.221-1.426.031-2.093.094z"/><path fill="#A05A2C" d="M126.705 224.119h1.046v.096c-.32-.061-.884.123-1.046-.096z"/><path fill="#371F0F" d="M88.289 104.023c.404-.483.848-.927 1.331-1.332-.404.484-.848.928-1.331 1.332zM193.646 96.606a7.7 7.7 0 011.142 1.141 7.796 7.796 0 01-1.142-1.141z"/><path fill="#A05A2C" d="M65.087 203.01c.452.373.864.785 1.236 1.236a9.254 9.254 0 01-1.236-1.236z"/><path fill="#371F0F" d="M133.741 92.993c.483.404.927.848 1.331 1.331a10.66 10.66 0 01-1.331-1.331zM135.643 94.989c.357.277.674.594.951.951a5.35 5.35 0 01-.951-.951zM179.954 164.404c4.255 1.758 6.203-1.488 8.272-3.898 3.896-4.538 7.459-9.779 9.984-15.405 3.862-8.604 5.541-17.837 5.325-28.717 7.469 11.867 12.613 30.003 9.224 49.256-2.536 14.404-9.476 26.115-17.781 35.373-2.357 2.625-4.493 5.557-9.509 4.373 1.38-2.674 2.607-5.291 2.853-8.938.398-5.943-1.079-11.797-2.758-17.211-1.67-5.387-3.442-10.4-5.42-14.549-.043-.09-.178-.155-.19-.284zM189.653 98.413a45.394 45.394 0 012.758 2.757 44.827 44.827 0 01-2.758-2.757z"/><path fill="#502D16" d="M143.535 78.063c20.607 1.549 34.472 9.84 46.118 20.349a44.827 44.827 0 002.758 2.757 72.316 72.316 0 0111.125 15.214c.216 10.879-1.463 20.112-5.325 28.717-2.525 5.625-6.089 10.867-9.984 15.405-2.069 2.41-4.018 5.656-8.272 3.898-11.202-26.072-25.87-48.681-43.36-68.464a5.35 5.35 0 00-.951-.951c-.131-.281-.438-.385-.57-.666a10.592 10.592 0 00-1.331-1.331c-3.671-3.271-7.226-6.657-13.598-7.227-.32-.158-1.296-.158-1.617 0-.903.016-1.633.205-2.472.286 1.153-4.816 5.647-5.739 10.935-6.847 2.801-.586 5.831-1.051 8.653-1.141.352-.061.947.124 1.142-.095H142.491c.161.219.724.036 1.044.096z"/><path fill="#6E3E1E" d="M91.142 106.971a30.9 30.9 0 012.282-2.282c-.721.8-1.482 1.561-2.282 2.282z"/><path fill="#371F0F" d="M68.13 200.252c.579.5 1.117 1.039 1.616 1.617a15.713 15.713 0 01-1.616-1.617z"/><path fill="#A05A2C" d="M93.424 104.688c4.736-4.586 10.33-8.817 16.926-11.886 2.206-1.026 4.465-2.228 6.751-2.757 5.043-1.169 9.316 1.94 12.267 4.469 3.18 2.726 5.663 5.934 8.178 8.938 5.295 6.329 10.359 12.666 14.929 19.303 9.617 13.968 17.477 28.76 24.152 44.311-7.029 17.004-21.293 27.768-39.271 34.611-16.687 6.354-44.413 9.777-63.994 3.139-1.354-.834-2.488-1.887-3.614-2.947a15.713 15.713 0 00-1.616-1.617c-1.833-2.354-4.163-4.754-5.04-8.178-.873-3.408-1.402-7.318-1.521-11.695v-1.141-3.043c.798-15.451 4.964-27.952 10.174-39.272 5.173-11.241 11.202-21.536 19.398-29.953.799-.72 1.56-1.481 2.281-2.282z"/><path fill="#6E3E1E" d="M73.36 204.816c19.581 6.639 47.308 3.215 63.994-3.139 17.979-6.844 32.242-17.607 39.271-34.611 2.797 6.412 5.468 13.244 6.941 20.92.796 4.145.989 8.877-.285 12.361-1.253 3.428-3.658 5.256-6.562 7.322-10.809 7.691-25.47 11.674-43.359 12.361h-5.801c-10.688-.182-20.831-1.994-29.858-4.564-9.156-2.607-17.353-5.662-24.057-10.365-.09-.064-.261-.134-.284-.285z"/><path fill="#371F0F" d="M207.625 115.148c.857-.124 2.422-1.208 3.423-1.711 3.199-1.608 6.764-3.635 10.745-4.564 5.216-1.217 11.124-.085 16.26.571 1.017.13 2.873.726 2.378-.666.186 2.88-.254 5.959-1.142 8.083-4.324-1.515-8.228-3.755-13.598-4.089-7.217-.448-11.547 3.429-16.354 5.61-.477-1.173-1.125-2.173-1.712-3.234z"/><path fill="#502D16" d="M231.968 98.317c6.509-.202 8.065 4.549 8.463 10.46.495 1.391-1.361.795-2.378.666-5.136-.656-11.044-1.788-16.26-.571-3.981.929-7.546 2.956-10.745 4.564-1.001.503-2.565 1.587-3.423 1.711-1.188-1.982-2.346-3.994-3.613-5.896 6.481-5.911 14.76-10.026 26.244-10.935l1.712.001z"/><path fill="#371F0F" d="M137.164 73.785h2.948v.095h-2.948v-.095z"/><path fill="#502D16" d="M140.112 73.785h2.187v.095h-2.187v-.095z"/><path fill="#6E3E1E" d="M135.072 73.975c.194-.218.79-.035 1.142-.095-.194.218-.79.034-1.142.095z"/><path fill="#A05A2C" d="M143.06 73.88c.383.061 1.012-.124 1.236.095-.383-.061-1.011.124-1.236-.095z"/><path d="M144.296 73.975c22.015 1.979 37.062 10.924 49.351 22.631.341.42.722.8 1.142 1.141 2.414 2.499 4.724 5.102 6.751 7.987 7.222-5.933 15.925-10.384 27.956-11.506h3.043c8.373.217 11.208 5.971 11.981 13.788.061.383-.124 1.011.095 1.236v.476c-.221.414-.033 1.235-.095 1.807-.156 1.932-.418 3.744-.951 5.515-.477 1.583-1.124 3.346-2.758 3.899-1.162.393-2.64-.177-3.898-.666-3.469-1.347-7.046-3.137-11.315-3.423-3.567-.239-5.679.792-7.987 1.901-2.155 1.036-4.211 1.971-6.371 3.423 3.346 7.812 5.97 16.344 6.656 26.815.062.414-.124 1.075.095 1.331V156.416c-.219.257-.033.918-.095 1.332-1.427 18.559-8.403 32.039-17.496 43.266-2.966 3.66-5.963 8.039-11.601 8.652-.352.061-.947-.123-1.142.096-.939-.086-1.825-.164-2.853-.381-.851-.18-1.814-.783-2.377-.762-.588.025-1.543 1.092-2.282 1.617-11.259 8.012-25.642 12.723-43.836 13.787-.383.062-1.011-.123-1.236.096h-1.046c-.888.062-2.027-.125-2.758.096h-1.331c-.54-.221-1.489-.033-2.187-.096H125.564c-.194-.219-.79-.033-1.141-.096-12.049-.707-23.091-2.93-32.9-6.084-9.763-3.141-18.594-7.258-25.198-13.693a9.254 9.254 0 00-1.236-1.236c-2.026-2.652-4.545-5.393-5.705-9.033-1.206-3.783-1.468-8.076-1.902-12.838v-1.33c-.062-.445.124-1.139-.095-1.426v-.762c.218-.162.035-.727.095-1.045v-1.047c.949-15.826 5.361-28.782 10.65-40.508 5.278-11.703 11.777-22.222 20.159-30.999.483-.404.927-.848 1.331-1.332 6.079-6.219 13.447-11.149 21.871-15.024 1.061-5.451 3.287-9.128 7.892-10.65 4.6-1.52 10.132-2.658 15.689-3.042.352-.061.947.123 1.142-.095H143.062c.223.22.851.035 1.234.096zm-6.371 3.994h-1.141c-.352.061-.947-.124-1.142.095-2.822.09-5.852.555-8.653 1.141-5.288 1.107-9.782 2.031-10.935 6.847.839-.081 1.569-.27 2.472-.286h1.617c6.372.57 9.926 3.957 13.598 7.227.404.483.848.927 1.331 1.331.132.281.439.385.57.666.277.357.595.674.951.951 17.49 19.783 32.158 42.392 43.36 68.464.012.129.146.193.19.285 1.978 4.148 3.75 9.162 5.42 14.549 1.679 5.414 3.156 11.268 2.758 17.211-.245 3.646-1.473 6.264-2.853 8.938 5.016 1.184 7.151-1.748 9.509-4.373 8.306-9.258 15.245-20.969 17.781-35.373 3.39-19.253-1.755-37.39-9.224-49.256a72.29 72.29 0 00-11.125-15.214 45.394 45.394 0 00-2.758-2.757c-11.646-10.509-25.511-18.8-46.118-20.349-.163-.217-.726-.035-1.046-.095h-.951c-.98-.161-2.628-.161-3.611-.002zm38.701 89.097c-6.676-15.551-14.535-30.343-24.152-44.311-4.569-6.637-9.634-12.975-14.929-19.303-2.515-3.004-4.998-6.212-8.178-8.938-2.95-2.529-7.223-5.638-12.267-4.469-2.286.53-4.545 1.731-6.751 2.757-6.596 3.069-12.19 7.3-16.926 11.886a30.9 30.9 0 00-2.282 2.282c-8.196 8.417-14.225 18.712-19.398 29.953-5.21 11.32-9.376 23.821-10.174 39.272-.222.824-.032 2.059-.095 3.043.061.352-.123.947.095 1.141.119 4.377.648 8.287 1.521 11.695.877 3.424 3.207 5.824 5.04 8.178a15.713 15.713 0 001.616 1.617c1.126 1.061 2.26 2.113 3.614 2.947.022.15.193.221.285.285 6.705 4.703 14.901 7.758 24.057 10.365 9.027 2.57 19.17 4.383 29.858 4.564.729.221 1.87.031 2.757.094h.951c.667-.062 1.584.127 2.093-.094 17.89-.688 32.551-4.67 43.359-12.361 2.903-2.066 5.309-3.895 6.562-7.322 1.274-3.484 1.081-8.217.285-12.361-1.473-7.675-4.144-14.507-6.941-20.92zm53.63-68.749c-11.484.909-19.763 5.024-26.244 10.935 1.268 1.902 2.426 3.914 3.613 5.896.587 1.062 1.235 2.062 1.712 3.233 4.808-2.181 9.138-6.059 16.354-5.61 5.37.333 9.273 2.574 13.598 4.089.888-2.124 1.327-5.203 1.142-8.083-.397-5.911-1.954-10.662-8.463-10.46-.352-.158-1.361-.158-1.712 0z"/><path fill="#502D16" d="M229.495 94.229c.793-.158 2.25-.158 3.043 0h-3.043z"/><path fill="#A05A2C" d="M244.614 109.252c-.219-.225-.034-.853-.095-1.236h.095v1.236z"/><path fill="#502D16" d="M244.614 109.728v1.807h-.095c.062-.572-.125-1.393.095-1.807z"/><path fill="#A05A2C" d="M217.895 149c.219.256.033.917.095 1.331-.219-.257-.034-.917-.095-1.331zM217.989 156.416c-.062.414.124 1.075-.095 1.332.062-.414-.123-1.075.095-1.332z"/><path fill="#502D16" d="M57.48 176.576c-.061.318.123.883-.095 1.045v-1.045h.095zM61.569 176.195v3.043h-.095c.063-.984-.126-2.218.095-3.043zM57.385 178.383c.219.287.034.98.095 1.426h-.095v-1.426zM187.656 209.762c.194-.219.79-.035 1.142-.096-.194.219-.79.035-1.142.096z"/><path fill="#A05A2C" d="M124.422 224.023c.352.062.947-.123 1.141.096-.351-.06-.947.123-1.141-.096z"/><path fill="#6E3E1E" d="M135.072 224.119c.226-.219.854-.033 1.236-.096-.224.219-.853.036-1.236.096z"/><path fill="#371F0F" d="M127.75 224.119c.698.062 1.647-.125 2.187.096h-2.187v-.096z"/><path fill="#6E3E1E" d="M131.269 224.215c.73-.221 1.87-.033 2.758-.096-.73.221-1.87.033-2.758.096z"/></g></svg>