<svg xmlns="http://www.w3.org/2000/svg" width="300" height="300"><path fill="#222" d="M0 0h300v300H0z"/><g fill-rule="evenodd" clip-rule="evenodd"><path fill="#2B2B2B" d="M183.937 167.043v-.525c3.687.346 8.759-.695 11.57.525h-11.57zM212.337 167.043c2.812-1.221 7.884-.18 11.57-.525v.525h-11.57z"/><path fill="#393939" d="M101.891 190.184c-.907.873-5.404.873-6.312 0h6.312zM207.077 190.184c-.907.873-5.404.873-6.312 0h6.312z"/><path fill="#636363" d="M107.676 219.637v-.525c4.211.346 9.812-.697 13.148.525h-13.148z"/><path fill="#747474" d="M107.676 209.117h38.393V103.93c-3.456-3.381-7.631-6.042-9.992-10.519-13.94-.436-29.773 1.022-42.075-1.052-.657-1.973-.972-6.5 0-8.415 11.838-2.362 27.983-.417 41.55-1.052 4.149-4.882 8.407-10.769 16.304-10.519 7.156.227 11.248 5.332 14.726 10.519 13.74.636 30.064-1.313 42.075 1.052.972 1.916.657 6.442 0 8.415-11.916 2.285-27.928.473-41.549 1.052-3.381 3.457-6.043 7.632-10.519 9.993v105.712h38.393c2.113 1.219 6.479.184 9.467.527 1.516.062 3.443-.287 4.208.525 1.076 1.729.284 5.326.525 7.889-2.268.537-4.25 1.359-7.362 1.053-1.599.33-4.53-.674-5.26.525h-75.734c-3.336-1.223-8.938-.18-13.148-.525h-8.941c-1.646-.107-3.861.354-4.733-.527-.308-2.578-1.08-6.018 0-8.414.765-.812 2.692-.463 4.208-.525 2.984-.343 7.35.692 9.464-.527zm43.652-127.802c-8.136.036-9.521 15.189 2.63 13.148 6.325-3.266 3.664-13.175-2.63-13.148z"/><path fill="#2B2B2B" d="M117.143 167.043c1.939-1.217 6.128-.184 8.94-.525-1.938 1.216-6.128.183-8.94.525z"/><path fill="#393939" d="M223.907 166.518h11.045v-.527c.511.016.408.645.525 1.053h-11.57v-.526z"/><path fill="#636363" d="M194.98 209.117c2.987.344 7.354-.691 9.467.527-2.987-.343-7.353.692-9.467-.527z"/><path fill="#4D4D4D" d="M196.559 219.637c.729-1.199 3.661-.195 5.26-.525-.73 1.199-3.662.195-5.26.525z"/><path fill="#747474" d="M95.579 190.184c-14.188-1.023-33.405-8.305-33.66-21.562-.099-5.152 4.812-11.588 7.89-17.355 6.578-12.33 10.874-19.948 17.881-32.609 2.443-4.412 6.045-14.363 10.52-14.726 4.66-.377 9.228 9.405 11.57 13.674 6.811 12.413 10.703 20.212 17.355 32.608 5.093 9.488 12.103 18.469 4.208 28.4-5.873 7.389-17.065 9.652-29.452 11.57h-6.312zm30.504-23.666c1.258-.32 3.815.66 4.208-.527-10.525-18.576-20.662-37.541-31.03-56.274-12.088 17.54-21.259 37.997-32.082 56.801h4.208c1.764 1.215 5.775.184 8.414.525h37.342c2.812-.342 7.002.691 8.94-.525zM200.766 190.184c-14.188-1.023-33.404-8.305-33.659-21.562-.1-5.152 4.812-11.588 7.889-17.355 6.578-12.33 10.874-19.948 17.882-32.609 2.442-4.412 6.045-14.363 10.519-14.726 4.66-.377 9.229 9.405 11.57 13.674 6.811 12.413 10.703 20.212 17.356 32.608 5.093 9.488 12.103 18.469 4.207 28.4-5.872 7.389-17.064 9.652-29.452 11.57h-6.312zm34.186-24.194c-10.541-18.736-19.668-38.885-31.557-56.274-10.166 18.76-20.548 37.305-30.504 56.274-.277 2.217 7.884.523 11.045 1.053h51.54c-.116-.408-.013-1.037-.524-1.053z"/><path fill="#2B2B2B" d="M71.387 166.518c2.638.342 6.649-.689 8.414.525-2.639-.342-6.651.689-8.414-.525z"/><path fill="#636363" d="M98.209 209.645c2.113-1.219 6.479-.184 9.467-.527-2.114 1.218-6.48.183-9.467.527z"/><path fill="#393939" d="M172.892 165.99c2.637 1.221 7.533.182 11.045.527v.525c-3.162-.528-11.323 1.165-11.045-1.052z"/><path fill="#4D4D4D" d="M98.734 219.111h8.941v.525c-2.813-.343-7.001.69-8.941-.525z"/></g></svg>