<svg xmlns="http://www.w3.org/2000/svg" width="300" height="300" viewBox="0 0 300 300"><path fill="#222" d="M0 0h300v300H0z"/><g fill-rule="evenodd" clip-rule="evenodd"><path fill="#2B2B2B" d="M183.937 167.043v-.525c3.687.346 8.76-.695 11.57.525h-11.57zM212.337 167.043c2.812-1.22 7.884-.18 11.57-.525v.525h-11.57z"/><path fill="#393939" d="M101.89 190.184c-.906.873-5.403.873-6.31 0h6.31zM207.077 190.184c-.907.873-5.404.873-6.312 0h6.312z"/><path fill="#636363" d="M107.676 219.637v-.525c4.21.346 9.812-.697 13.148.525h-13.148z"/><path fill="#747474" d="M107.676 209.117h38.393V103.93c-3.457-3.38-7.632-6.042-9.993-10.52-13.94-.435-29.773 1.023-42.075-1.05-.657-1.974-.972-6.5 0-8.416 11.838-2.362 27.983-.417 41.55-1.052 4.15-4.882 8.407-10.77 16.304-10.52 7.156.228 11.248 5.333 14.726 10.52 13.74.636 30.064-1.313 42.075 1.052.972 1.916.657 6.442 0 8.415-11.916 2.284-27.928.472-41.55 1.05-3.38 3.458-6.042 7.633-10.518 9.994v105.712h38.392c2.113 1.22 6.48.184 9.467.527 1.515.062 3.442-.287 4.207.525 1.076 1.73.284 5.326.525 7.89-2.268.536-4.25 1.358-7.362 1.052-1.6.33-4.53-.674-5.26.525h-75.734c-3.336-1.223-8.938-.18-13.148-.525h-8.94c-1.647-.107-3.862.354-4.734-.527-.308-2.578-1.08-6.018 0-8.414.765-.813 2.692-.464 4.208-.526 2.984-.343 7.35.692 9.464-.527zm43.652-127.802c-8.136.036-9.52 15.19 2.63 13.148 6.325-3.266 3.664-13.175-2.63-13.148z"/><path fill="#2B2B2B" d="M117.143 167.043c1.94-1.217 6.128-.184 8.94-.525-1.938 1.216-6.128.183-8.94.525z"/><path fill="#393939" d="M223.907 166.518h11.045v-.527c.51.017.408.646.525 1.054h-11.57v-.526z"/><path fill="#636363" d="M194.98 209.117c2.987.344 7.354-.69 9.467.527-2.987-.343-7.353.692-9.467-.527z"/><path fill="#4D4D4D" d="M196.56 219.637c.728-1.2 3.66-.195 5.26-.525-.73 1.2-3.663.195-5.26.525z"/><path fill="#747474" d="M95.58 190.184c-14.19-1.023-33.406-8.305-33.66-21.562-.1-5.152 4.81-11.588 7.89-17.355 6.577-12.33 10.873-19.948 17.88-32.61 2.443-4.41 6.045-14.362 10.52-14.725 4.66-.377 9.228 9.405 11.57 13.674 6.81 12.413 10.703 20.212 17.355 32.608 5.093 9.488 12.103 18.47 4.208 28.4-5.873 7.39-17.065 9.652-29.452 11.57h-6.31zm30.503-23.666c1.258-.32 3.815.66 4.208-.527-10.524-18.575-20.66-37.54-31.03-56.273-12.087 17.54-21.258 37.997-32.08 56.8h4.207c1.764 1.216 5.775.185 8.414.526h37.343c2.812-.342 7.002.69 8.94-.525zM200.766 190.184c-14.188-1.023-33.404-8.305-33.66-21.562-.1-5.152 4.813-11.588 7.89-17.355 6.578-12.33 10.874-19.948 17.882-32.61 2.442-4.41 6.045-14.362 10.52-14.725 4.66-.377 9.228 9.405 11.57 13.674 6.81 12.413 10.702 20.212 17.355 32.608 5.093 9.488 12.103 18.47 4.207 28.4-5.872 7.39-17.064 9.652-29.452 11.57h-6.312zm34.186-24.194c-10.54-18.736-19.668-38.885-31.557-56.274-10.166 18.76-20.548 37.305-30.504 56.274-.276 2.217 7.885.523 11.046 1.053h51.54c-.116-.408-.013-1.037-.524-1.053z"/><path fill="#2B2B2B" d="M71.387 166.518c2.638.342 6.65-.69 8.414.525-2.638-.342-6.65.69-8.413-.525z"/><path fill="#636363" d="M98.21 209.645c2.112-1.22 6.478-.184 9.466-.527-2.114 1.218-6.48.183-9.467.527z"/><path fill="#393939" d="M172.892 165.99c2.637 1.22 7.533.182 11.045.527v.525c-3.162-.528-11.323 1.165-11.045-1.052z"/><path fill="#4D4D4D" d="M98.734 219.11h8.94v.526c-2.812-.343-7 .69-8.94-.525z"/></g></svg>