<svg xmlns="http://www.w3.org/2000/svg" xmlns:xlink="http://www.w3.org/1999/xlink" width="300" height="300" viewBox="0 0 300 300"><path fill="#55ACEE" d="M0 0h300v300H0z"/><g transform="matrix(1.25 0 0 -1.25 0 47.5)"><defs><path id="a" d="M-232.02 5.423h74.162v74.163h-74.163z"/></defs><clipPath id="b"><use xlink:href="#a" overflow="visible"/></clipPath><g clip-path="url(#b)"><path fill="#FFCC4D" d="M-168.397 42.505c0-14.66-11.884-26.542-26.542-26.542-14.657 0-26.542 11.883-26.542 26.542 0 14.657 11.885 26.542 26.543 26.542 14.66 0 26.543-11.885 26.543-26.542"/><path fill="#664500" d="M-201.185 44.845c0-3.02-1.747-5.464-3.903-5.464-2.156 0-3.904 2.446-3.904 5.465s1.747 5.466 3.904 5.466c2.156 0 3.903-2.446 3.903-5.465M-180.888 44.845c0-3.02-1.747-5.464-3.903-5.464-2.156 0-3.903 2.446-3.903 5.465s1.747 5.466 3.902 5.466c2.155 0 3.902-2.446 3.902-5.465M-204.308 26.89c3.123 7.808 20.298 7.808 20.298 4.685 0-1.562-12.49 1.56-20.298-4.684"/></g></g><g transform="matrix(1.25 0 0 -1.25 0 47.5)"><defs><path id="c" d="M-179.008-7.208h75.695v75.694h-75.695z"/></defs><clipPath id="d"><use xlink:href="#c" overflow="visible"/></clipPath><g clip-path="url(#d)"><path fill="#FFCC4D" d="M-114.07 30.64c0-14.964-12.128-27.092-27.09-27.092-14.963 0-27.092 12.128-27.092 27.09 0 14.963 12.13 27.092 27.09 27.092 14.964 0 27.092-12.13 27.092-27.09"/><path fill="#664500" d="M-141.16 25.858c-5.774 0-9.605.673-14.343 1.594-1.082.21-3.188 0-3.188-3.188 0-6.373 7.322-14.342 17.528-14.342 10.205 0 17.53 7.97 17.53 14.342 0 3.188-2.106 3.398-3.188 3.188-4.736-.922-8.567-1.594-14.34-1.594M-153.91 38.606s0 3.188 3.188 3.188c3.187 0 3.187-3.188 3.187-3.188V35.42s0-3.187-3.187-3.187c-3.188 0-3.188 3.187-3.188 3.187v3.186zM-134.787 38.606s0 3.188 3.187 3.188c3.188 0 3.188-3.188 3.188-3.188V35.42s0-3.187-3.188-3.187c-3.187 0-3.187 3.187-3.187 3.187v3.186z"/><path fill="#FFF" d="M-155.503 24.264s4.78-1.594 14.342-1.594c9.56 0 14.34 1.594 14.34 1.594s-3.187-6.373-14.34-6.373c-11.156 0-14.343 6.374-14.343 6.374"/></g></g><g transform="matrix(1.25 0 0 -1.25 0 47.5)"><defs><path id="e" d="M-124.49 8.59h74.5v74.5h-74.5z"/></defs><clipPath id="f"><use xlink:href="#e" overflow="visible"/></clipPath><g clip-path="url(#f)"><path fill="#FDCB58" d="M-60.576 45.84c0-14.727-11.938-26.664-26.663-26.664-14.723 0-26.662 11.938-26.662 26.663 0 14.723 11.94 26.662 26.663 26.662 14.727 0 26.664-11.94 26.664-26.663"/><path fill="#664500" d="M-75.5 27.208c-.07.28-1.832 6.868-11.74 6.868s-11.67-6.587-11.74-6.868c-.085-.34.068-.693.373-.87.305-.17.688-.123.94.12.03.03 3.065 2.913 10.428 2.913 7.363 0 10.4-2.88 10.428-2.91.15-.148.352-.226.552-.226.13 0 .265.033.386.1.307.176.46.532.375.874M-90.835 46.948c-5.105 5.105-13.31 5.166-13.656 5.166-.867 0-1.568-.702-1.568-1.567-.002-.864.7-1.57 1.565-1.57.046 0 3.02-.034 6.248-1.155-.93-1.004-1.54-2.563-1.54-4.334 0-3.034 1.754-5.49 3.92-5.49s3.92 2.456 3.92 5.49c0 .273-.03.533-.057.795.02 0 .04-.012.058-.012.402 0 .803.155 1.11.46.61.614.61 1.604 0 2.218M-69.987 52.113c-.346 0-8.55-.06-13.656-5.166-.613-.613-.613-1.604 0-2.218.306-.306.708-.46 1.11-.46.02 0 .037.012.056.012-.025-.262-.057-.523-.057-.795 0-3.034 1.755-5.49 3.922-5.49 2.166 0 3.92 2.456 3.92 5.49 0 1.77-.61 3.33-1.54 4.334 3.228 1.122 6.202 1.156 6.248 1.156.865.002 1.566.706 1.564 1.57 0 .866-.7 1.567-1.567 1.567"/></g></g><path fill-rule="evenodd" clip-rule="evenodd" fill="#5CB85C" d="M0 0h102.64v301H0z"/><path fill-rule="evenodd" clip-rule="evenodd" fill="#D9534F" d="M198.5 124.205H300V301H198.5z"/><path fill-rule="evenodd" clip-rule="evenodd" fill="#428BCA" d="M101.936 67.5h101.5V301h-101.5z"/><g fill-rule="evenodd" clip-rule="evenodd"><path fill="#CEE5F4" d="M209.564 120.515c.2.954.2 2.737 0 3.69v-3.69z"/><path fill="#80BBE4" d="M128.24 201.603v-.12h4.524v.12h-4.525z"/><path fill="#ECF5FB" d="M161.34 100.034c.35-.447.744-.845 1.192-1.19-.347.446-.745.844-1.19 1.19z"/><path fill="#CEE5F4" d="M101.925 101.7c.525.43 1.002.904 1.428 1.43-.525-.428-1-.902-1.428-1.43z"/><path fill="#ECF5FB" d="M108.712 168.38c.764.667 1.48 1.38 2.143 2.144-.765-.664-1.48-1.378-2.143-2.144z"/><path fill="#CEE5F4" d="M215.637 113.728c.43-.525.904-1.003 1.43-1.43-.426.527-.902 1.002-1.43 1.43z"/><path fill="#A8D1ED" d="M185.038 180.17c.506-.606 1.062-1.16 1.667-1.67-.506.61-1.062 1.162-1.667 1.67z"/><path fill="#CEE5F4" d="M93.232 131.707c-.273-.28-.043-1.068-.12-1.548.135.012.187-.175.24 0-.274.28-.042 1.07-.12 1.547z"/><path fill="#80BBE4" d="M161.34 100.034c.447-.347.845-.744 1.192-1.19h.12c-.39.486-.823.922-1.312 1.31v-.12z"/><path fill="#ECF5FB" d="M212.066 105.394c.467-.566.98-1.083 1.548-1.55-.468.567-.982 1.083-1.548 1.55z"/><path fill="#CEE5F4" d="M94.78 189.458c.518-.276 1.547-.04 2.263-.12-.518.275-1.547.04-2.262.12z"/><path fill="#A8D1ED" d="M126.69 201.483h1.55v.12h-1.55v-.12zM132.764 201.483h1.668v.12h-1.668v-.12zM93.47 108.964v2.98c-.198-.72-.198-2.263 0-2.98z"/><path fill="#CEE5F4" d="M106.688 158.617h3.096c-.757.2-2.34.2-3.096 0zM91.804 189.34c.715.077 1.744-.158 2.262.118-.715-.08-1.745.155-2.262-.12z"/><path fill="#E7E7E7" d="M179.797 91.342h3.69c6.026.505 11.263 2.762 15.122 5.716.975.746 2.728 2.91 3.692 2.977 1.406.095 3.46-.798 4.764-1.19 4.673-1.406 8.812-3.353 12.502-5.24-1.31 4.092-3.494 7.302-5.954 10.24-.566.467-1.08.983-1.548 1.55-1.053.787-2.36 1.88-3.453 2.618-.325.22-.95.464-.835.716 5.907-.727 10.935-2.328 15.6-4.288-1.89 2.832-4.05 5.397-6.31 7.857-.526.426-1 .903-1.43 1.43-.84.856-1.865 1.58-3.097 2.62-.74.625-2.75 1.786-2.976 2.736-.12.516.092.964 0 1.43v3.69c-1.202 24.518-10.525 40.912-22.86 54.296-.604.508-1.16 1.062-1.666 1.67-12.335 11.636-27.844 20.1-50.606 21.312h-7.743c-16.08-.865-28.708-5.82-38.697-12.383 1.248.102 2.4.3 3.81.24.518.273 1.547.038 2.263.118h.715c.716-.08 1.746.155 2.263-.12 12.88-.527 22.685-5.107 30.364-10.716.493-.36 1.453-.657 1.19-1.07-7.904-.354-13.194-3.318-17.742-7.028-.665-.763-1.38-1.477-2.143-2.144-2.286-2.873-4.715-6.237-5.597-10.118 1.156.15 2.214.405 3.572.355.755.2 2.34.2 3.096 0 2.12-.064 4.066-.3 5.596-.952-12.772-3.266-20.682-11.39-22.148-25.958.077-.48-.155-1.267.12-1.548 3.334 1.903 7.333 3.145 12.263 3.452-6.112-4.684-11.463-11.16-12.145-21.67v-2.98c.287-5.11 1.756-9.037 3.69-12.502 1.587 1.75 3.068 3.603 4.765 5.24.426.526.902 1 1.428 1.43 12.605 11.924 28.192 20.864 51.2 22.383-2.335-10.523 1.556-20.118 6.787-25.36.488-.388.922-.823 1.31-1.31 4.264-3.954 9.658-6.776 17.147-7.5z"/></g></svg>