<svg xmlns="http://www.w3.org/2000/svg" xmlns:xlink="http://www.w3.org/1999/xlink" width="300" height="300"><path fill="#55ACEE" d="M0 0h300v300H0z"/><g transform="matrix(1.25 0 0 -1.25 0 47.5)"><defs><path id="a" d="M-232.021 5.423h74.163v74.163h-74.163z"/></defs><clipPath id="b"><use xlink:href="#a" overflow="visible"/></clipPath><g clip-path="url(#b)"><path fill="#FFCC4D" d="M-168.397 42.505c0-14.659-11.884-26.542-26.542-26.542-14.658 0-26.543 11.883-26.543 26.542 0 14.657 11.885 26.542 26.543 26.542 14.659 0 26.542-11.885 26.542-26.542"/><path fill="#664500" d="M-201.185 44.845c0-3.019-1.747-5.464-3.903-5.464-2.156 0-3.904 2.445-3.904 5.464s1.747 5.466 3.904 5.466c2.156 0 3.903-2.447 3.903-5.466M-180.888 44.845c0-3.019-1.747-5.464-3.903-5.464-2.155 0-3.902 2.445-3.902 5.464s1.747 5.466 3.902 5.466c2.156 0 3.903-2.447 3.903-5.466M-204.308 26.891c3.123 7.807 20.298 7.807 20.298 4.684 0-1.562-12.491 1.561-20.298-4.684"/></g></g><g transform="matrix(1.25 0 0 -1.25 0 47.5)"><defs><path id="c" d="M-179.008-7.208h75.695v75.694h-75.695z"/></defs><clipPath id="d"><use xlink:href="#c" overflow="visible"/></clipPath><g clip-path="url(#d)"><path fill="#FFCC4D" d="M-114.07 30.639c0-14.963-12.128-27.091-27.091-27.091-14.962 0-27.091 12.128-27.091 27.091 0 14.962 12.129 27.091 27.091 27.091 14.963 0 27.091-12.129 27.091-27.091"/><path fill="#664500" d="M-141.161 25.858c-5.773 0-9.604.673-14.342 1.594-1.082.209-3.188 0-3.188-3.188 0-6.373 7.323-14.342 17.529-14.342 10.205 0 17.53 7.969 17.53 14.342 0 3.188-2.106 3.398-3.188 3.188-4.736-.922-8.567-1.594-14.341-1.594M-153.91 38.606s0 3.188 3.188 3.188c3.187 0 3.187-3.188 3.187-3.188V35.42s0-3.187-3.187-3.187c-3.188 0-3.188 3.187-3.188 3.187v3.186zM-134.787 38.606s0 3.188 3.187 3.188c3.188 0 3.188-3.188 3.188-3.188V35.42s0-3.187-3.188-3.187c-3.187 0-3.187 3.187-3.187 3.187v3.186z"/><path fill="#FFF" d="M-155.503 24.264s4.78-1.594 14.342-1.594c9.561 0 14.342 1.594 14.342 1.594s-3.188-6.373-14.342-6.373c-11.155 0-14.342 6.373-14.342 6.373"/></g></g><g transform="matrix(1.25 0 0 -1.25 0 47.5)"><defs><path id="e" d="M-124.489 8.589h74.5v74.5h-74.5z"/></defs><clipPath id="f"><use xlink:href="#e" overflow="visible"/></clipPath><g clip-path="url(#f)"><path fill="#FDCB58" d="M-60.576 45.839c0-14.726-11.938-26.663-26.663-26.663-14.724 0-26.663 11.938-26.663 26.663 0 14.724 11.939 26.663 26.663 26.663 14.726 0 26.663-11.939 26.663-26.663"/><path fill="#664500" d="M-75.499 27.208c-.07.281-1.833 6.868-11.74 6.868-9.909 0-11.67-6.587-11.74-6.868a.782.782 0 01.372-.869.792.792 0 01.94.12c.03.03 3.065 2.912 10.428 2.912 7.362 0 10.398-2.882 10.427-2.912a.795.795 0 01.938-.125.787.787 0 01.375.874M-90.835 46.948c-5.105 5.105-13.31 5.166-13.656 5.166a1.568 1.568 0 01-.002-3.137c.046 0 3.02-.034 6.248-1.155-.93-1.004-1.541-2.563-1.541-4.334 0-3.034 1.755-5.49 3.921-5.49s3.921 2.456 3.921 5.49c0 .273-.03.533-.058.795.02 0 .039-.012.058-.012a1.567 1.567 0 011.109 2.677M-69.987 52.113c-.346 0-8.549-.06-13.656-5.166a1.567 1.567 0 011.109-2.677c.021 0 .038.012.057.012-.025-.262-.057-.523-.057-.795 0-3.034 1.755-5.49 3.922-5.49 2.166 0 3.921 2.456 3.921 5.49 0 1.77-.611 3.33-1.541 4.334 3.228 1.121 6.202 1.155 6.248 1.155a1.568 1.568 0 01-.003 3.137"/></g></g><path fill-rule="evenodd" clip-rule="evenodd" fill="#5CB85C" d="M0 0h102.64v301H0z"/><path fill-rule="evenodd" clip-rule="evenodd" fill="#D9534F" d="M198.5 124.205H300V301H198.5z"/><path fill-rule="evenodd" clip-rule="evenodd" fill="#428BCA" d="M101.936 67.5h101.5V301h-101.5z"/><g fill-rule="evenodd" clip-rule="evenodd"><path fill="#CEE5F4" d="M209.564 120.515c.199.954.199 2.737 0 3.69v-3.69z"/><path fill="#80BBE4" d="M128.239 201.603v-.119h4.525v.119h-4.525z"/><path fill="#ECF5FB" d="M161.341 100.034a6.675 6.675 0 011.191-1.19 6.741 6.741 0 01-1.191 1.19z"/><path fill="#CEE5F4" d="M101.925 101.7a9.806 9.806 0 011.428 1.431 9.806 9.806 0 01-1.428-1.431z"/><path fill="#ECF5FB" d="M108.712 168.38a22.127 22.127 0 012.143 2.144 21.366 21.366 0 01-2.143-2.144z"/><path fill="#CEE5F4" d="M215.637 113.728a9.964 9.964 0 011.43-1.43 9.618 9.618 0 01-1.43 1.43z"/><path fill="#A8D1ED" d="M185.038 180.17a13.341 13.341 0 011.667-1.669 13.208 13.208 0 01-1.667 1.669z"/><path fill="#CEE5F4" d="M93.232 131.707c-.273-.281-.043-1.068-.119-1.548.134.013.186-.174.239 0-.274.281-.042 1.07-.12 1.548z"/><path fill="#80BBE4" d="M161.341 100.034a6.775 6.775 0 001.191-1.19h.119a8.157 8.157 0 01-1.311 1.309l.001-.119z"/><path fill="#ECF5FB" d="M212.066 105.394a11.33 11.33 0 011.548-1.549 11.502 11.502 0 01-1.548 1.549z"/><path fill="#CEE5F4" d="M94.781 189.458c.517-.276 1.546-.041 2.262-.119-.518.274-1.547.039-2.262.119z"/><path fill="#A8D1ED" d="M126.691 201.483h1.548v.119h-1.548v-.119zM132.764 201.483h1.668v.119h-1.668v-.119zM93.471 108.964v2.979c-.199-.718-.199-2.262 0-2.979z"/><path fill="#CEE5F4" d="M106.688 158.617h3.096c-.757.199-2.341.199-3.096 0zM91.804 189.339c.715.078 1.744-.157 2.262.119-.715-.08-1.745.155-2.262-.119z"/><path fill="#E7E7E7" d="M179.797 91.342h3.691c6.025.505 11.262 2.762 15.121 5.716.976.746 2.729 2.91 3.693 2.977 1.406.095 3.459-.798 4.764-1.19 4.673-1.406 8.812-3.353 12.502-5.239-1.309 4.091-3.494 7.301-5.954 10.24a11.33 11.33 0 00-1.548 1.549c-1.053.787-2.36 1.879-3.453 2.618-.325.22-.949.464-.835.716 5.907-.726 10.935-2.327 15.601-4.287-1.892 2.832-4.05 5.397-6.312 7.857-.525.427-1 .904-1.43 1.43-.84.857-1.864 1.58-3.096 2.62-.742.626-2.752 1.787-2.977 2.737-.119.516.092.964 0 1.43v3.69c-1.202 24.518-10.525 40.912-22.859 54.296a13.274 13.274 0 00-1.667 1.669c-12.335 11.637-27.844 20.102-50.606 21.313H126.691c-16.08-.865-28.709-5.821-38.698-12.383 1.248.101 2.4.299 3.811.238.517.274 1.546.039 2.262.119h.715c.715-.08 1.745.155 2.262-.119 12.88-.528 22.685-5.108 30.364-10.717.493-.359 1.453-.657 1.19-1.07-7.904-.354-13.194-3.318-17.742-7.028a22.24 22.24 0 00-2.143-2.144c-2.286-2.873-4.715-6.237-5.597-10.118 1.156.151 2.214.405 3.572.355.755.199 2.34.199 3.096 0 2.121-.064 4.066-.301 5.596-.952-12.771-3.266-20.681-11.39-22.147-25.958.077-.479-.155-1.267.12-1.548 3.334 1.904 7.333 3.146 12.263 3.453-6.112-4.684-11.463-11.161-12.145-21.67v-2.979c.287-5.11 1.756-9.038 3.691-12.503 1.586 1.749 3.067 3.603 4.764 5.239a9.756 9.756 0 001.428 1.431c12.605 11.924 28.192 20.864 51.201 22.383-2.336-10.523 1.555-20.118 6.786-25.361a8.157 8.157 0 001.311-1.309c4.263-3.954 9.657-6.776 17.146-7.501z"/></g></svg>